<svg width="152" height="130" viewBox="0 0 152 130" fill="none" xmlns="http://www.w3.org/2000/svg">
<path d="M69.277 94.0517V102.101V121.653V128.594L57.4627 117.787L51.9296 112.725L38.554 100.49L31.492 94.0301L28.759 91.5302V61.3475V14.8736C46.9356 22.2427 61.0487 38.0152 66.6516 57.5816C66.8135 58.1473 66.9684 58.7162 67.1161 59.2881C68.5255 64.7475 69.277 70.4857 69.277 76.4058V94.0517Z" fill="#FFF900" stroke="#FFF900" stroke-miterlimit="10" stroke-linecap="round" stroke-linejoin="round"/>
<path d="M83.6687 91.768C83.8348 90.9621 83.9863 90.1515 84.123 89.3365C84.7279 85.7291 85.0416 82.0346 85.0416 78.2734C85.0416 64.6399 80.9197 51.8824 73.748 40.9763C75.5756 34.644 76.5448 28.0248 76.5448 21.2132C76.5448 19.8616 76.5066 18.5175 76.4312 17.1818C86.8009 25.5275 94.9333 36.5372 99.7875 49.1705C103.837 42.9193 108.511 37.0965 113.723 31.787C114.261 31.2388 114.805 30.6961 115.354 30.1589C118.232 27.3464 121.263 24.6864 124.436 22.1923C131.187 16.8859 138.576 12.3307 146.472 8.65541C147.963 7.9611 149.473 7.29819 151 6.66756C148.078 14.2437 146.472 22.5119 146.472 31.1691V35.8887V72.601V92.2624L113.728 129V108.19V60.9113C106.623 75.4204 96.6789 86.2067 85.2317 91.1351C84.7137 91.3582 84.1927 91.5692 83.6687 91.768Z" fill="#0073FF" stroke="#0074FF" stroke-miterlimit="10" stroke-linecap="round" stroke-linejoin="round"/>
<path d="M17.0857 6.9397C13.175 6.40456 9.1715 6.12719 5.09684 6.12719C3.72286 6.12719 2.35697 6.15873 1 6.22105C6.15796 4.19955 11.5906 2.72477 17.2265 1.86809C20.9873 1.29643 24.8386 1 28.7591 1C42.4954 1 55.3811 4.6388 66.5037 11.0044C69.5119 18.973 71.1362 27.4687 71.1362 36.2871C71.1362 36.8056 71.1306 37.323 71.1194 37.8392C62.1088 25.8579 49.2616 16.4542 34.1884 11.0935C28.7519 9.16007 23.0258 7.75254 17.0857 6.9397Z" fill="#FF7D00" stroke="#FF7D00" stroke-miterlimit="10" stroke-linecap="round" stroke-linejoin="round"/>
</svg>
